<svg xmlns="http://www.w3.org/2000/svg" viewBox="0 0 256 256" role="img" aria-label="Laimue icon">
  <defs>
    <linearGradient id="g1" x1="0" x2="1" y1="0" y2="1">
      <stop offset="0%" stop-color="#d8704d"/>
      <stop offset="100%" stop-color="#a8391f"/>
    </linearGradient>
  </defs>
  <rect width="256" height="256" rx="52" fill="#f7f2e7"/>
  <path d="M82 184c-14 0-26-11-26-25V96c0-14 12-25 26-25h40c15 0 27 11 27 25v7l31-31c12-12 31-12 43 0 12 12 12 31 0 43L190 138v21c0 14-11 25-25 25H82zm46-30c10 0 18-8 18-18v-15c0-10-8-18-18-18h-1c-10 0-18 8-18 18v15c0 10 8 18 18 18h1zm36-53 21-21c4-4 10-4 14 0s4 10 0 14l-21 21-14-14z" fill="url(#g1)"/>
  <path d="M91 191h80c10 0 18 8 18 18v8H73v-8c0-10 8-18 18-18z" fill="#22304a" opacity="0.9"/>
</svg>
